<?xml version="1.0" encoding="utf-8"?>
<!-- Generator: Adobe Illustrator 24.1.2, SVG Export Plug-In . SVG Version: 6.00 Build 0)  -->
<svg version="1.1" id="Layer_1" xmlns="http://www.w3.org/2000/svg" xmlns:xlink="http://www.w3.org/1999/xlink" x="0px" y="0px"
	 viewBox="0 0 1556.3 1750.9" style="enable-background:new 0 0 1556.3 1750.9;" xml:space="preserve">
<style type="text/css">
	.st0{fill:none;}
	.st1{fill:#2062AF;}
	.st2{fill:#3C9CD7;}
	.st3{fill:#FFFFFF;}
	.st4{fill:url(#SVGID_1_);}
	.st5{fill:url(#SVGID_2_);}
	.st6{fill:url(#SVGID_3_);}
	.st7{opacity:5.000000e-02;enable-background:new    ;}
	.st8{fill:url(#SVGID_4_);}
</style>
<path class="st0" d="M-471.8-589.2h2500v2500h-2500V-589.2z"/>
<path class="st1" d="M1410.4,1580.7l-632.3,170.2l-632.3-170.2L0,0h1556.3L1410.4,1580.7z"/>
<path class="st2" d="M778.2,128v1487.1l1.4,0.4l511.7-137.8L1409.4,128L778.2,128L778.2,128z"/>
<path class="st3" d="M777.6,523.3L325.1,711.7l15,186.6l437.5-187.1l465.4-199l19.3-190.9L777.6,523.3L777.6,523.3z"/>
<linearGradient id="SVGID_1_" gradientUnits="userSpaceOnUse" x1="-758.3314" y1="533.6248" x2="-758.3314" y2="452.8238" gradientTransform="matrix(4.6418 0 0 4.6418 4071.3589 -1578.6595)">
	<stop  offset="0.387" style="stop-color:#D1D3D4;stop-opacity:0"/>
	<stop  offset="1" style="stop-color:#D1D3D4"/>
</linearGradient>
<path class="st4" d="M325.1,711.7l15,186.6l437.5-187.1v-188L325.1,711.7z"/>
<linearGradient id="SVGID_2_" gradientUnits="userSpaceOnUse" x1="-657.3744" y1="493.3238" x2="-657.3744" y2="409.3347" gradientTransform="matrix(4.6418 0 0 4.6418 4071.3589 -1578.6595)">
	<stop  offset="0.387" style="stop-color:#D1D3D4;stop-opacity:0"/>
	<stop  offset="1" style="stop-color:#D1D3D4"/>
</linearGradient>
<path class="st5" d="M1262.3,321.4L777.6,523.3v188l465.4-199L1262.3,321.4z"/>
<linearGradient id="SVGID_3_" gradientUnits="userSpaceOnUse" x1="-806.9264" y1="569.6627" x2="-612.8614" y2="569.6627" gradientTransform="matrix(4.6418 0 0 4.6418 4071.3589 -1578.6595)">
	<stop  offset="0" style="stop-color:#E8E7E5"/>
	<stop  offset="1" style="stop-color:#FFFFFF"/>
</linearGradient>
<path class="st6" d="M325.8,711.7l15,186.6l671.3,2.1l-15,248.8l-220.9,62.2l-212.4-53.6L551,1003.4H353.6l25.7,298.1l398.9,118
	l396.8-115.8l51.5-591.9H325.8z"/>
<path class="st7" d="M777.6,711.7H325.1l15,186.6l437.5,1.4L777.6,711.7L777.6,711.7z M777.6,1210.8l-2.1,0.6l-212.3-53.6
	l-12.9-154.4H353l25.7,298.1l398.9,118V1210.8z"/>
<linearGradient id="SVGID_4_" gradientUnits="userSpaceOnUse" x1="-815.8554" y1="429.8958" x2="-605.1634" y2="429.8958" gradientTransform="matrix(4.6418 0 0 4.6418 4071.3589 -1578.6595)">
	<stop  offset="0" style="stop-color:#E8E7E5"/>
	<stop  offset="1" style="stop-color:#FFFFFF"/>
</linearGradient>
<path class="st8" d="M284.3,321.4h978L1243,512.3H307.9L284.3,321.4L284.3,321.4z"/>
<path class="st7" d="M777.6,321.4H284.3l23.6,190.9h469.7L777.6,321.4L777.6,321.4z"/>
</svg>
