<?xml version="1.0" encoding="utf-8"?>
<!-- Generator: Adobe Illustrator 24.1.2, SVG Export Plug-In . SVG Version: 6.00 Build 0)  -->
<svg version="1.1"
	 id="svg2" xmlns:cc="http://creativecommons.org/ns#" xmlns:dc="http://purl.org/dc/elements/1.1/" xmlns:rdf="http://www.w3.org/1999/02/22-rdf-syntax-ns#" xmlns:svg="http://www.w3.org/2000/svg"
	 xmlns="http://www.w3.org/2000/svg" xmlns:xlink="http://www.w3.org/1999/xlink" x="0px" y="0px" viewBox="0 0 68.6 66.1"
	 style="enable-background:new 0 0 68.6 66.1;" xml:space="preserve">
<style type="text/css">
	.st0{fill:#2E64B3;}
</style>
<g id="g10" transform="matrix(1.3333333,0,0,-1.3333333,0,94.333333)">
	<g id="g12" transform="scale(0.1)">
		<path id="path48" class="st0" d="M32.7,591.1c-45.6-65.5-39.9-150.6-5.1-220.2c0.8-1.7,1.7-3.3,2.5-4.9c0.5-1.1,1-2.1,1.6-3.2
			c0.3-0.6,0.7-1.2,1-1.8c0.6-1.1,1.2-2.2,1.8-3.3c1.1-1.9,2.2-3.8,3.4-5.7c0.6-1,1.2-2.1,1.9-3.1c1.2-2,2.6-4,3.8-6
			c0.6-0.9,1.1-1.7,1.7-2.5c1.8-2.7,3.6-5.4,5.6-8.1c0-0.1,0.1-0.1,0.1-0.2c0.3-0.5,0.6-0.9,0.9-1.3c1.7-2.3,3.4-4.5,5.1-6.8
			c0.6-0.8,1.3-1.6,1.9-2.4c1.6-1.9,3.2-3.9,4.7-5.8c0.6-0.7,1.2-1.4,1.8-2.1c2.1-2.5,4.3-5,6.5-7.5c0,0,0.1-0.1,0.1-0.1
			c0.1-0.1,0.1-0.2,0.3-0.3c2.2-2.4,4.4-4.7,6.6-7c0.7-0.7,1.4-1.4,2.2-2.1c1.7-1.7,3.4-3.5,5.3-5.2c0.7-0.7,1.5-1.4,2.2-2.1
			c2.4-2.2,4.8-4.5,7.3-6.6c0,0,0.1-0.1,0.1-0.1c0.4-0.4,0.9-0.7,1.2-1.1c2.2-1.9,4.4-3.8,6.6-5.6c0.9-0.8,1.8-1.5,2.7-2.2
			c1.9-1.5,3.7-2.9,5.6-4.3c1-0.7,1.9-1.5,3-2.2c2-1.5,4.1-3,6.2-4.4c0.7-0.5,1.5-1.1,2.3-1.6c0.2-0.2,0.4-0.3,0.6-0.5
			c2.1-1.3,4-2.6,6-4c0.9-0.6,1.8-1.1,2.6-1.7c3.1-2,6.3-3.9,9.4-5.8c0.9-0.5,1.8-1,2.6-1.5c2.3-1.3,4.7-2.7,7.1-3.9
			c1.3-0.7,2.6-1.4,4-2c1.6-0.9,3.3-1.8,5-2.7c0.4-0.2,0.8-0.3,1.2-0.5c0.7-0.3,1.4-0.7,2.1-1c2.6-1.3,5.3-2.5,8.1-3.7
			c0.5-0.2,1.1-0.5,1.6-0.7c3.1-1.3,6.2-2.6,9.4-3.9c0.8-0.3,1.5-0.6,2.3-0.9c2.9-1.1,5.9-2.2,8.8-3.3c0.4-0.2,0.7-0.3,1.1-0.4
			c3.3-1.1,6.5-2.2,9.9-3.2c0.8-0.2,1.6-0.5,2.4-0.7c3.4-1,6.7-2.2,10.2-2.9c220.3-40.2,284.3,132.4,284.3,132.4
			c-53.8-70-149.2-88.5-239.6-67.9c-3.4,0.8-6.7,1.8-10.1,2.8c-0.8,0.2-1.7,0.5-2.5,0.8c-3.3,1-6.5,2.1-9.7,3.1
			c-0.4,0.1-0.9,0.3-1.4,0.5c-2.9,1-5.7,2.1-8.5,3.2c-0.8,0.3-1.6,0.6-2.4,0.9c-3.1,1.2-6.2,2.6-9.3,3.9c-0.7,0.2-1.2,0.5-1.9,0.8
			c-2.6,1.2-5.2,2.4-7.8,3.6c-0.8,0.3-1.5,0.7-2.3,1.1c-2,1-4,2-6,3.1c-1.4,0.7-2.7,1.4-4,2.1c-2.4,1.3-4.9,2.7-7.3,4
			c-0.8,0.5-1.6,0.9-2.4,1.4c-3.1,1.9-6.3,3.8-9.4,5.8c-0.9,0.6-1.7,1.1-2.5,1.7c-2.3,1.4-4.5,2.9-6.7,4.4c-0.7,0.5-1.4,1-2.2,1.6
			c-2.1,1.5-4.2,3-6.3,4.6c-0.9,0.7-1.8,1.4-2.8,2.1c-1.9,1.5-3.8,2.9-5.7,4.5c-0.8,0.7-1.7,1.4-2.5,2c-2.5,2-4.8,4-7.1,6
			c-0.2,0.2-0.6,0.5-0.8,0.7c-2.5,2.2-5,4.5-7.5,6.8c-0.7,0.7-1.4,1.4-2.1,2c-1.8,1.8-3.6,3.5-5.3,5.2c-0.7,0.7-1.4,1.4-2.1,2.1
			c-2.2,2.3-4.4,4.6-6.6,7c-0.1,0.1-0.2,0.2-0.3,0.3c-2.3,2.5-4.5,5-6.7,7.6c-0.6,0.7-1.2,1.4-1.8,2.1c-1.6,2-3.2,4-4.9,6
			c-0.5,0.8-1.1,1.5-1.7,2.2c-1.9,2.4-3.7,4.9-5.6,7.4c-50.2,68.4-68.3,162.9-28.1,240.4"/>
		<path id="path50" class="st0" d="M174.2,646.3c-33-47.4-31.2-110.9-5.5-161c4.3-8.4,9.1-16.6,14.6-24.3c4.9-7.1,10.4-15.5,17-21.2
			c2.3-2.6,4.8-5.2,7.4-7.7c0.6-0.6,1.3-1.3,1.9-1.9c2.5-2.4,5-4.7,7.5-7c0.1-0.1,0.2-0.2,0.3-0.3c0,0,0.1-0.1,0.1-0.1
			c2.9-2.5,5.8-4.9,8.8-7.3c0.7-0.5,1.3-1.1,2.1-1.6c3-2.3,6.1-4.6,9.1-6.8c0.1,0,0.2-0.1,0.3-0.2c1.3-1,2.8-1.9,4.2-2.8
			c0.6-0.4,1.3-0.9,1.9-1.3c2.3-1.5,4.5-2.9,6.8-4.2c0.3-0.2,0.7-0.4,1-0.5c1.9-1.2,4-2.3,6.1-3.4c0.7-0.4,1.4-0.8,2.1-1.2
			c1.4-0.7,2.8-1.5,4.2-2.2c0.2-0.1,0.5-0.2,0.7-0.3c2.9-1.4,5.9-2.8,8.8-4.1c0.7-0.3,1.3-0.5,2-0.8c2.4-1,4.8-2,7.2-2.9
			c1.1-0.4,2.1-0.8,3.1-1.1c2.2-0.8,4.4-1.5,6.6-2.3c1.1-0.4,2-0.7,3-1c3.1-1,6.3-2.3,9.6-2.8c170.1-28.2,209.4,102.8,209.4,102.8
			c-35.4-51-104-75.3-177.1-56.3c-3.3,0.8-6.5,1.8-9.6,2.8c-1,0.3-1.9,0.6-2.9,0.9c-2.3,0.7-4.6,1.5-6.8,2.3c-1,0.4-2.1,0.7-3.1,1.1
			c-2.4,0.9-4.9,1.9-7.2,2.9c-0.7,0.3-1.4,0.5-1.9,0.8c-3,1.3-6,2.7-8.9,4.1c-1.5,0.8-2.9,1.5-4.4,2.3c-0.9,0.4-1.8,0.9-2.5,1.3
			c-2,1-3.8,2.1-5.7,3.2c-0.4,0.2-0.9,0.5-1.3,0.7c-2.3,1.4-4.6,2.8-6.8,4.2c-0.8,0.4-1.4,0.9-2.1,1.4c-1.5,1-2.9,1.9-4.5,2.9
			c-3.1,2.1-6.1,4.4-9.1,6.7c-0.7,0.6-1.4,1.1-2.1,1.7c-32.1,25.3-57.5,59.8-69.5,99c-12.7,40.6-9.9,86.3,12,123.3"/>
		<path id="path52" class="st0" d="M293.1,687.5c-19.5-28.6-21.4-64.1-7.9-95.6c14.3-33.5,43.4-59.8,77.4-72.3
			c1.4-0.5,2.8-1,4.2-1.5c0.6-0.2,1.2-0.4,1.9-0.6c2-0.6,4-1.4,6-1.8c93.9-18.1,119.4,48.2,126.2,58C478.5,541.6,441,533.9,395,545
			c-3.6,0.9-7.6,2.2-11.1,3.5c-4.5,1.6-8.9,3.4-13.2,5.5c-8.1,3.9-15.9,8.7-23.2,14.2c-41.2,31.2-66.7,90.8-39.9,139.4"/>
	</g>
</g>
</svg>
